# xmcd
#
# Track frame offsets:
#	150
#	16630
#	35382
#	59235
#	95165
#	117905
#
# Disc length: 1828 seconds
# Revision: 0
# Processed by: cddbd v1.5.2PL0 Copyright (c) Steve Scherf et al.
# Submitted via: dBpowerAMP V12.0
#
DISCID=4b072206
DTITLE=Various Artist - Sexual [CD Single)
DYEAR=1995
DGENRE=
TTITLE0=Maria Rowe - Sexual (Radio Edit Short)
TTITLE1=Sexual (Radio 7 Inch)
TTITLE2=Sexual (Femi Fem 12 Inch)
TTITLE3=Sexual (12 Inch Parkside Club)
TTITLE4=Sexual (Sexy Motherfunk Mix)
TTITLE5=Sexual (Biffco Extra Pop 7 Inch)
EXTD=
EXTT0=
EXTT1=
EXTT2=
EXTT3=
EXTT4=
EXTT5=
PLAYORDER=
